<svg xmlns="http://www.w3.org/2000/svg" xmlns:xlink="http://www.w3.org/1999/xlink" xmlns:lucid="lucid" width="1246.14" height="538"><g transform="translate(700.5 -122.5)" lucid:page-tab-id="0_0"><path d="M-700 128a5 5 0 0 1 5-5h249.5a5 5 0 0 1 5 5v190a5 5 0 0 1-5 5H-695a5 5 0 0 1-5-5z" fill="#fff"/><path d="M-700 163v-35a5 5 0 0 1 5-5h249.5a5 5 0 0 1 5 5v35" fill="#dedeff"/><path d="M-700 128a5 5 0 0 1 5-5h249.5a5 5 0 0 1 5 5v190a5 5 0 0 1-5 5H-695a5 5 0 0 1-5-5zM-700 163h259.5M-561.72 163v160" stroke="#282c33" fill="none"/><use xlink:href="#a" transform="matrix(1,0,0,1,-690,123) translate(0 23.6)"/><use xlink:href="#b" transform="matrix(1,0,0,1,-695,165.5) translate(0 17.1)"/><use xlink:href="#c" transform="matrix(1,0,0,1,-556.7201654241385,165.5) translate(0 17.1)"/><use xlink:href="#d" transform="matrix(1,0,0,1,-695,197.5) translate(0 17.1)"/><use xlink:href="#e" transform="matrix(1,0,0,1,-556.7201654241385,197.5) translate(0 17.1)"/><use xlink:href="#f" transform="matrix(1,0,0,1,-695,229.5) translate(0 17.1)"/><use xlink:href="#e" transform="matrix(1,0,0,1,-556.7201654241385,229.5) translate(0 17.1)"/><use xlink:href="#g" transform="matrix(1,0,0,1,-695,261.5) translate(0 17.1)"/><use xlink:href="#e" transform="matrix(1,0,0,1,-556.7201654241385,261.5) translate(0 17.1)"/><use xlink:href="#h" transform="matrix(1,0,0,1,-695,293.5) translate(0 17.1)"/><use xlink:href="#e" transform="matrix(1,0,0,1,-556.7201654241385,293.5) translate(0 17.1)"/><path d="M-700 465a5 5 0 0 1 5-5h249.5a5 5 0 0 1 5 5v126a5 5 0 0 1-5 5H-695a5 5 0 0 1-5-5z" fill="#fff"/><path d="M-700 500v-35a5 5 0 0 1 5-5h249.5a5 5 0 0 1 5 5v35" fill="#dedeff"/><path d="M-700 465a5 5 0 0 1 5-5h249.5a5 5 0 0 1 5 5v126a5 5 0 0 1-5 5H-695a5 5 0 0 1-5-5zM-700 500h259.5M-561.72 500v96" stroke="#282c33" fill="none"/><use xlink:href="#i" transform="matrix(1,0,0,1,-690,460) translate(0 23.6)"/><use xlink:href="#j" transform="matrix(1,0,0,1,-695,502.5) translate(0 17.1)"/><use xlink:href="#c" transform="matrix(1,0,0,1,-556.7201654241385,502.5) translate(0 17.1)"/><use xlink:href="#k" transform="matrix(1,0,0,1,-695,534.5) translate(0 17.1)"/><use xlink:href="#e" transform="matrix(1,0,0,1,-556.7201654241385,534.5) translate(0 17.1)"/><use xlink:href="#b" transform="matrix(1,0,0,1,-695,566.5) translate(0 17.1)"/><use xlink:href="#l" transform="matrix(1,0,0,1,-556.7201654241385,566.5) translate(0 17.1)"/><path d="M-42.9 296a5 5 0 0 1 5-5h249.5a5 5 0 0 1 5 5v126a5 5 0 0 1-5 5H-37.9a5 5 0 0 1-5-5z" fill="#fff"/><path d="M-42.9 331v-35a5 5 0 0 1 5-5h249.5a5 5 0 0 1 5 5v35" fill="#dedeff"/><path d="M-42.9 296a5 5 0 0 1 5-5h249.5a5 5 0 0 1 5 5v126a5 5 0 0 1-5 5H-37.9a5 5 0 0 1-5-5zM-42.9 331h259.5M95.37 331v96" stroke="#282c33" fill="none"/><use xlink:href="#m" transform="matrix(1,0,0,1,-32.90837192585286,291) translate(0 23.6)"/><use xlink:href="#n" transform="matrix(1,0,0,1,-37.90837192585286,333.5) translate(0 17.1)"/><use xlink:href="#o" transform="matrix(1,0,0,1,100.3714626500086,333.5) translate(0 17.1)"/><use xlink:href="#p" transform="matrix(1,0,0,1,-37.90837192585286,365.5) translate(0 17.1)"/><use xlink:href="#o" transform="matrix(1,0,0,1,100.3714626500086,365.5) translate(0 17.1)"/><use xlink:href="#q" transform="matrix(1,0,0,1,-37.90837192585286,397.5) translate(0 17.1)"/><use xlink:href="#o" transform="matrix(1,0,0,1,100.3714626500086,397.5) translate(0 17.1)"/><path d="M-371.45 465a5 5 0 0 1 5-5h249.5a5 5 0 0 1 5 5v126a5 5 0 0 1-5 5h-249.5a5 5 0 0 1-5-5z" fill="#fff"/><path d="M-371.45 500v-35a5 5 0 0 1 5-5h249.5a5 5 0 0 1 5 5v35" fill="#dedeff"/><path d="M-371.45 465a5 5 0 0 1 5-5h249.5a5 5 0 0 1 5 5v126a5 5 0 0 1-5 5h-249.5a5 5 0 0 1-5-5zM-371.45 500h259.5M-233.17 500v96" stroke="#282c33" fill="none"/><use xlink:href="#r" transform="matrix(1,0,0,1,-361.45418596292643,460) translate(0 23.6)"/><use xlink:href="#s" transform="matrix(1,0,0,1,-366.45418596292643,502.5) translate(0 17.1)"/><use xlink:href="#c" transform="matrix(1,0,0,1,-228.17435138706497,502.5) translate(0 17.1)"/><use xlink:href="#t" transform="matrix(1,0,0,1,-366.45418596292643,534.5) translate(0 17.1)"/><use xlink:href="#e" transform="matrix(1,0,0,1,-228.17435138706497,534.5) translate(0 17.1)"/><use xlink:href="#j" transform="matrix(1,0,0,1,-366.45418596292643,566.5) translate(0 17.1)"/><use xlink:href="#l" transform="matrix(1,0,0,1,-228.17435138706497,566.5) translate(0 17.1)"/><path d="M-371.45 128a5 5 0 0 1 5-5h249.5a5 5 0 0 1 5 5v286a5 5 0 0 1-5 5h-249.5a5 5 0 0 1-5-5z" fill="#fff"/><path d="M-371.45 163v-35a5 5 0 0 1 5-5h249.5a5 5 0 0 1 5 5v35" fill="#dedeff"/><path d="M-371.45 128a5 5 0 0 1 5-5h249.5a5 5 0 0 1 5 5v286a5 5 0 0 1-5 5h-249.5a5 5 0 0 1-5-5zM-371.45 163h259.5M-233.17 163v256" stroke="#282c33" fill="none"/><use xlink:href="#u" transform="matrix(1,0,0,1,-361.45418596292643,123) translate(0 23.6)"/><use xlink:href="#v" transform="matrix(1,0,0,1,-366.45418596292643,165.5) translate(0 17.1)"/><use xlink:href="#c" transform="matrix(1,0,0,1,-228.17435138706497,165.5) translate(0 17.1)"/><use xlink:href="#w" transform="matrix(1,0,0,1,-366.45418596292643,197.5) translate(0 17.1)"/><use xlink:href="#e" transform="matrix(1,0,0,1,-228.17435138706497,197.5) translate(0 17.1)"/><use xlink:href="#x" transform="matrix(1,0,0,1,-366.45418596292643,229.5) translate(0 17.1)"/><use xlink:href="#e" transform="matrix(1,0,0,1,-228.17435138706497,229.5) translate(0 17.1)"/><use xlink:href="#y" transform="matrix(1,0,0,1,-366.45418596292643,261.5) translate(0 17.1)"/><use xlink:href="#z" transform="matrix(1,0,0,1,-228.17435138706497,261.5) translate(0 17.1)"/><use xlink:href="#s" transform="matrix(1,0,0,1,-366.45418596292643,293.5) translate(0 17.1)"/><use xlink:href="#l" transform="matrix(1,0,0,1,-228.17435138706497,293.5) translate(0 17.1)"/><use xlink:href="#A" transform="matrix(1,0,0,1,-366.45418596292643,325.5) translate(0 17.1)"/><use xlink:href="#e" transform="matrix(1,0,0,1,-228.17435138706497,325.5) translate(0 17.1)"/><use xlink:href="#B" transform="matrix(1,0,0,1,-366.45418596292643,357.5) translate(0 17.1)"/><use xlink:href="#z" transform="matrix(1,0,0,1,-228.17435138706497,357.5) translate(0 17.1)"/><use xlink:href="#n" transform="matrix(1,0,0,1,-366.45418596292643,389.5) translate(0 17.1)"/><use xlink:href="#l" transform="matrix(1,0,0,1,-228.17435138706497,389.5) translate(0 17.1)"/><path d="M-42.9 465a5 5 0 0 1 5-5h249.5a5 5 0 0 1 5 5v190a5 5 0 0 1-5 5H-37.9a5 5 0 0 1-5-5z" fill="#fff"/><path d="M-42.9 500v-35a5 5 0 0 1 5-5h249.5a5 5 0 0 1 5 5v35" fill="#dedeff"/><path d="M-42.9 465a5 5 0 0 1 5-5h249.5a5 5 0 0 1 5 5v190a5 5 0 0 1-5 5H-37.9a5 5 0 0 1-5-5zM-42.9 500h259.5M95.37 500v160" stroke="#282c33" fill="none"/><use xlink:href="#C" transform="matrix(1,0,0,1,-32.90837192585286,460) translate(0 23.6)"/><use xlink:href="#D" transform="matrix(1,0,0,1,-37.90837192585286,502.5) translate(0 17.1)"/><use xlink:href="#c" transform="matrix(1,0,0,1,100.3714626500086,502.5) translate(0 17.1)"/><use xlink:href="#E" transform="matrix(1,0,0,1,-37.90837192585286,534.5) translate(0 17.1)"/><use xlink:href="#e" transform="matrix(1,0,0,1,100.3714626500086,534.5) translate(0 17.1)"/><use xlink:href="#F" transform="matrix(1,0,0,1,-37.90837192585286,566.5) translate(0 17.1)"/><use xlink:href="#e" transform="matrix(1,0,0,1,100.3714626500086,566.5) translate(0 17.1)"/><use xlink:href="#G" transform="matrix(1,0,0,1,-37.90837192585286,598.5) translate(0 17.1)"/><use xlink:href="#e" transform="matrix(1,0,0,1,100.3714626500086,598.5) translate(0 17.1)"/><use xlink:href="#H" transform="matrix(1,0,0,1,-37.90837192585286,630.5) translate(0 17.1)"/><use xlink:href="#e" transform="matrix(1,0,0,1,100.3714626500086,630.5) translate(0 17.1)"/><path d="M285.64 128a5 5 0 0 1 5-5h249.5a5 5 0 0 1 5 5v158a5 5 0 0 1-5 5h-249.5a5 5 0 0 1-5-5z" fill="#fff"/><path d="M285.64 163v-35a5 5 0 0 1 5-5h249.5a5 5 0 0 1 5 5v35" fill="#dedeff"/><path d="M285.64 128a5 5 0 0 1 5-5h249.5a5 5 0 0 1 5 5v158a5 5 0 0 1-5 5h-249.5a5 5 0 0 1-5-5zM285.64 163h259.5M423.92 163v128" stroke="#282c33" fill="none"/><use xlink:href="#I" transform="matrix(1,0,0,1,295.6374421112207,123) translate(0 23.6)"/><use xlink:href="#J" transform="matrix(1,0,0,1,290.6374421112207,165.5) translate(0 17.1)"/><use xlink:href="#c" transform="matrix(1,0,0,1,428.91727668708216,165.5) translate(0 17.1)"/><use xlink:href="#K" transform="matrix(1,0,0,1,290.6374421112207,197.5) translate(0 17.1)"/><use xlink:href="#l" transform="matrix(1,0,0,1,428.91727668708216,197.5) translate(0 17.1)"/><use xlink:href="#v" transform="matrix(1,0,0,1,290.6374421112207,229.5) translate(0 17.1)"/><use xlink:href="#l" transform="matrix(1,0,0,1,428.91727668708216,229.5) translate(0 17.1)"/><use xlink:href="#L" transform="matrix(1,0,0,1,290.6374421112207,261.5) translate(0 17.1)"/><use xlink:href="#l" transform="matrix(1,0,0,1,428.91727668708216,261.5) translate(0 17.1)"/><path d="M285.64 465a5 5 0 0 1 5-5h249.5a5 5 0 0 1 5 5v126a5 5 0 0 1-5 5h-249.5a5 5 0 0 1-5-5z" fill="#fff"/><path d="M285.64 500v-35a5 5 0 0 1 5-5h249.5a5 5 0 0 1 5 5v35" fill="#dedeff"/><path d="M285.64 465a5 5 0 0 1 5-5h249.5a5 5 0 0 1 5 5v126a5 5 0 0 1-5 5h-249.5a5 5 0 0 1-5-5zM285.64 500h259.5M423.92 500v96" stroke="#282c33" fill="none"/><use xlink:href="#M" transform="matrix(1,0,0,1,295.6374421112207,460) translate(0 23.6)"/><use xlink:href="#K" transform="matrix(1,0,0,1,290.6374421112207,502.5) translate(0 17.1)"/><use xlink:href="#c" transform="matrix(1,0,0,1,428.91727668708216,502.5) translate(0 17.1)"/><use xlink:href="#D" transform="matrix(1,0,0,1,290.6374421112207,534.5) translate(0 17.1)"/><use xlink:href="#l" transform="matrix(1,0,0,1,428.91727668708216,534.5) translate(0 17.1)"/><use xlink:href="#N" transform="matrix(1,0,0,1,290.6374421112207,566.5) translate(0 17.1)"/><use xlink:href="#O" transform="matrix(1,0,0,1,428.91727668708216,566.5) translate(0 17.1)"/><path d="M-570.25 343.5v96.6M-570.25 323.5v20m-10 0h20M-570.25 459.28v-20m10 20l-10-20m-10 20l10-20M-420 515.95h28.63M-440 515.95h20m0 10v-20M-372.18 515.95h-20m20-10l-20 10m20 10l-20-10M-241.7 439.5v-.6M-241.7 459.5v-20m10 0h-20M-241.7 419.72v20m-10-20l10 20m10-20l-10 20M237.1 547.95h28.63M217.1 547.95h20m0 10v-20M284.9 547.95h-20m20-10l-20 10m20 10l-20-10M415.4 439.5V310.9M415.4 459.5v-20m10 0h-20M415.4 291.72v20m-10-20l10 20m10-20l-10 20M-63.4 346.95h-28.64M-43.4 346.95h-20m0-10v20M-111.23 346.95h20m-20 10l20-10m-20-10l20 10M-91.45 210.77h357.18M-111.45 210.77h20m0 10v-20M284.9 210.77h-20m20-10l-20 10m20 10l-20-10" stroke="#3a414a" fill="none"/><defs><path fill="#333" d="M135-143c-3-34-86-38-87 0 15 53 115 12 119 90S17 21 10-45l28-5c4 36 97 45 98 0-10-56-113-15-118-90-4-57 82-63 122-42 12 7 21 19 24 35" id="P"/><path fill="#333" d="M59-47c-2 24 18 29 38 22v24C64 9 27 4 27-40v-127H5v-23h24l9-43h21v43h35v23H59v120" id="Q"/><path fill="#333" d="M100-194c62-1 85 37 85 99 1 63-27 99-86 99S16-35 15-95c0-66 28-99 85-99zM99-20c44 1 53-31 53-75 0-43-8-75-51-75s-53 32-53 75 10 74 51 75" id="R"/><path fill="#333" d="M114-163C36-179 61-72 57 0H25l-1-190h30c1 12-1 29 2 39 6-27 23-49 58-41v29" id="S"/><path fill="#333" d="M100-194c63 0 86 42 84 106H49c0 40 14 67 53 68 26 1 43-12 49-29l28 8c-11 28-37 45-77 45C44 4 14-33 15-96c1-61 26-98 85-98zm52 81c6-60-76-77-97-28-3 7-6 17-6 28h103" id="T"/><g id="a"><use transform="matrix(0.05,0,0,0.05,0,0)" xlink:href="#P"/><use transform="matrix(0.05,0,0,0.05,9,0)" xlink:href="#Q"/><use transform="matrix(0.05,0,0,0.05,14,0)" xlink:href="#R"/><use transform="matrix(0.05,0,0,0.05,24,0)" xlink:href="#S"/><use transform="matrix(0.05,0,0,0.05,29.950000000000003,0)" xlink:href="#T"/><use transform="matrix(0.05,0,0,0.05,39.95,0)" xlink:href="#P"/></g><path fill="#333" d="M-5 72V49h209v23H-5" id="U"/><path fill="#333" d="M24-231v-30h32v30H24zM24 0v-190h32V0H24" id="V"/><path fill="#333" d="M85-194c31 0 48 13 60 33l-1-100h32l1 261h-30c-2-10 0-23-3-31C134-8 116 4 85 4 32 4 16-35 15-94c0-66 23-100 70-100zm9 24c-40 0-46 34-46 75 0 40 6 74 45 74 42 0 51-32 51-76 0-42-9-74-50-73" id="W"/><g id="b"><use transform="matrix(0.05,0,0,0.05,0,0)" xlink:href="#P"/><use transform="matrix(0.05,0,0,0.05,9,0)" xlink:href="#Q"/><use transform="matrix(0.05,0,0,0.05,14,0)" xlink:href="#R"/><use transform="matrix(0.05,0,0,0.05,24,0)" xlink:href="#S"/><use transform="matrix(0.05,0,0,0.05,29.950000000000003,0)" xlink:href="#T"/><use transform="matrix(0.05,0,0,0.05,39.95,0)" xlink:href="#U"/><use transform="matrix(0.05,0,0,0.05,49.95,0)" xlink:href="#V"/><use transform="matrix(0.05,0,0,0.05,53.900000000000006,0)" xlink:href="#W"/></g><path fill="#333" d="M185-189c-5-48-123-54-124 2 14 75 158 14 163 119 3 78-121 87-175 55-17-10-28-26-33-46l33-7c5 56 141 63 141-1 0-78-155-14-162-118-5-82 145-84 179-34 5 7 8 16 11 25" id="X"/><path fill="#333" d="M30 0v-248h187v28H63v79h144v27H63v87h162V0H30" id="Y"/><path fill="#333" d="M233-177c-1 41-23 64-60 70L243 0h-38l-65-103H63V0H30v-248c88 3 205-21 203 71zM63-129c60-2 137 13 137-47 0-61-80-42-137-45v92" id="Z"/><path fill="#333" d="M33 0v-248h34V0H33" id="aa"/><path fill="#333" d="M205 0l-28-72H64L36 0H1l101-248h38L239 0h-34zm-38-99l-47-123c-12 45-31 82-46 123h93" id="ab"/><path fill="#333" d="M30 0v-248h33v221h125V0H30" id="ac"/><g id="c"><use transform="matrix(0.05,0,0,0.05,0,0)" xlink:href="#X"/><use transform="matrix(0.05,0,0,0.05,12,0)" xlink:href="#Y"/><use transform="matrix(0.05,0,0,0.05,24,0)" xlink:href="#Z"/><use transform="matrix(0.05,0,0,0.05,36.95,0)" xlink:href="#aa"/><use transform="matrix(0.05,0,0,0.05,41.95,0)" xlink:href="#ab"/><use transform="matrix(0.05,0,0,0.05,53.95,0)" xlink:href="#ac"/></g><path fill="#333" d="M117-194c89-4 53 116 60 194h-32v-121c0-31-8-49-39-48C34-167 62-67 57 0H25l-1-190h30c1 10-1 24 2 32 11-22 29-35 61-36" id="ad"/><path fill="#333" d="M141-36C126-15 110 5 73 4 37 3 15-17 15-53c-1-64 63-63 125-63 3-35-9-54-41-54-24 1-41 7-42 31l-33-3c5-37 33-52 76-52 45 0 72 20 72 64v82c-1 20 7 32 28 27v20c-31 9-61-2-59-35zM48-53c0 20 12 33 32 33 41-3 63-29 60-74-43 2-92-5-92 41" id="ae"/><path fill="#333" d="M210-169c-67 3-38 105-44 169h-31v-121c0-29-5-50-35-48C34-165 62-65 56 0H25l-1-190h30c1 10-1 24 2 32 10-44 99-50 107 0 11-21 27-35 58-36 85-2 47 119 55 194h-31v-121c0-29-5-49-35-48" id="af"/><g id="d"><use transform="matrix(0.05,0,0,0.05,0,0)" xlink:href="#P"/><use transform="matrix(0.05,0,0,0.05,9,0)" xlink:href="#Q"/><use transform="matrix(0.05,0,0,0.05,14,0)" xlink:href="#R"/><use transform="matrix(0.05,0,0,0.05,24,0)" xlink:href="#S"/><use transform="matrix(0.05,0,0,0.05,29.950000000000003,0)" xlink:href="#T"/><use transform="matrix(0.05,0,0,0.05,39.95,0)" xlink:href="#U"/><use transform="matrix(0.05,0,0,0.05,49.95,0)" xlink:href="#ad"/><use transform="matrix(0.05,0,0,0.05,59.95,0)" xlink:href="#ae"/><use transform="matrix(0.05,0,0,0.05,69.95,0)" xlink:href="#af"/><use transform="matrix(0.05,0,0,0.05,84.9,0)" xlink:href="#T"/></g><path fill="#333" d="M137 0h-34L2-248h35l83 218 83-218h36" id="ag"/><path fill="#333" d="M212-179c-10-28-35-45-73-45-59 0-87 40-87 99 0 60 29 101 89 101 43 0 62-24 78-52l27 14C228-24 195 4 139 4 59 4 22-46 18-125c-6-104 99-153 187-111 19 9 31 26 39 46" id="ah"/><path fill="#333" d="M197 0v-115H63V0H30v-248h33v105h134v-105h34V0h-34" id="ai"/><g id="e"><use transform="matrix(0.05,0,0,0.05,0,0)" xlink:href="#ag"/><use transform="matrix(0.05,0,0,0.05,10.65,0)" xlink:href="#ab"/><use transform="matrix(0.05,0,0,0.05,22.65,0)" xlink:href="#Z"/><use transform="matrix(0.05,0,0,0.05,35.6,0)" xlink:href="#ah"/><use transform="matrix(0.05,0,0,0.05,48.550000000000004,0)" xlink:href="#ai"/><use transform="matrix(0.05,0,0,0.05,61.5,0)" xlink:href="#ab"/><use transform="matrix(0.05,0,0,0.05,73.5,0)" xlink:href="#Z"/></g><path fill="#333" d="M24 0v-261h32V0H24" id="aj"/><path fill="#333" d="M84 4C-5 8 30-112 23-190h32v120c0 31 7 50 39 49 72-2 45-101 50-169h31l1 190h-30c-1-10 1-25-2-33-11 22-28 36-60 37" id="ak"/><g id="f"><use transform="matrix(0.05,0,0,0.05,0,0)" xlink:href="#aj"/><use transform="matrix(0.05,0,0,0.05,3.95,0)" xlink:href="#ae"/><use transform="matrix(0.05,0,0,0.05,13.949999999999998,0)" xlink:href="#Q"/><use transform="matrix(0.05,0,0,0.05,18.95,0)" xlink:href="#V"/><use transform="matrix(0.05,0,0,0.05,22.9,0)" xlink:href="#Q"/><use transform="matrix(0.05,0,0,0.05,27.899999999999995,0)" xlink:href="#ak"/><use transform="matrix(0.05,0,0,0.05,37.9,0)" xlink:href="#W"/><use transform="matrix(0.05,0,0,0.05,47.9,0)" xlink:href="#T"/></g><path fill="#333" d="M177-190C167-65 218 103 67 71c-23-6-38-20-44-43l32-5c15 47 100 32 89-28v-30C133-14 115 1 83 1 29 1 15-40 15-95c0-56 16-97 71-98 29-1 48 16 59 35 1-10 0-23 2-32h30zM94-22c36 0 50-32 50-73 0-42-14-75-50-75-39 0-46 34-46 75s6 73 46 73" id="al"/><g id="g"><use transform="matrix(0.05,0,0,0.05,0,0)" xlink:href="#aj"/><use transform="matrix(0.05,0,0,0.05,3.95,0)" xlink:href="#R"/><use transform="matrix(0.05,0,0,0.05,13.949999999999998,0)" xlink:href="#ad"/><use transform="matrix(0.05,0,0,0.05,23.95,0)" xlink:href="#al"/><use transform="matrix(0.05,0,0,0.05,33.95,0)" xlink:href="#V"/><use transform="matrix(0.05,0,0,0.05,37.900000000000006,0)" xlink:href="#Q"/><use transform="matrix(0.05,0,0,0.05,42.900000000000006,0)" xlink:href="#ak"/><use transform="matrix(0.05,0,0,0.05,52.900000000000006,0)" xlink:href="#W"/><use transform="matrix(0.05,0,0,0.05,62.900000000000006,0)" xlink:href="#T"/></g><path fill="#333" d="M96-169c-40 0-48 33-48 73s9 75 48 75c24 0 41-14 43-38l32 2c-6 37-31 61-74 61-59 0-76-41-82-99-10-93 101-131 147-64 4 7 5 14 7 22l-32 3c-4-21-16-35-41-35" id="am"/><path fill="#333" d="M179-190L93 31C79 59 56 82 12 73V49c39 6 53-20 64-50L1-190h34L92-34l54-156h33" id="an"/><g id="h"><use transform="matrix(0.05,0,0,0.05,0,0)" xlink:href="#am"/><use transform="matrix(0.05,0,0,0.05,9,0)" xlink:href="#V"/><use transform="matrix(0.05,0,0,0.05,12.949999999999998,0)" xlink:href="#Q"/><use transform="matrix(0.05,0,0,0.05,17.95,0)" xlink:href="#an"/></g><g id="i"><use transform="matrix(0.05,0,0,0.05,0,0)" xlink:href="#P"/><use transform="matrix(0.05,0,0,0.05,9,0)" xlink:href="#T"/><use transform="matrix(0.05,0,0,0.05,19,0)" xlink:href="#am"/><use transform="matrix(0.05,0,0,0.05,28,0)" xlink:href="#Q"/><use transform="matrix(0.05,0,0,0.05,33,0)" xlink:href="#V"/><use transform="matrix(0.05,0,0,0.05,36.95,0)" xlink:href="#R"/><use transform="matrix(0.05,0,0,0.05,46.95,0)" xlink:href="#ad"/><use transform="matrix(0.05,0,0,0.05,56.95,0)" xlink:href="#P"/></g><g id="j"><use transform="matrix(0.05,0,0,0.05,0,0)" xlink:href="#P"/><use transform="matrix(0.05,0,0,0.05,9,0)" xlink:href="#T"/><use transform="matrix(0.05,0,0,0.05,19,0)" xlink:href="#am"/><use transform="matrix(0.05,0,0,0.05,28,0)" xlink:href="#Q"/><use transform="matrix(0.05,0,0,0.05,33,0)" xlink:href="#V"/><use transform="matrix(0.05,0,0,0.05,36.95,0)" xlink:href="#R"/><use transform="matrix(0.05,0,0,0.05,46.95,0)" xlink:href="#ad"/><use transform="matrix(0.05,0,0,0.05,56.95,0)" xlink:href="#U"/><use transform="matrix(0.05,0,0,0.05,66.95,0)" xlink:href="#V"/><use transform="matrix(0.05,0,0,0.05,70.9,0)" xlink:href="#W"/></g><g id="k"><use transform="matrix(0.05,0,0,0.05,0,0)" xlink:href="#P"/><use transform="matrix(0.05,0,0,0.05,9,0)" xlink:href="#T"/><use transform="matrix(0.05,0,0,0.05,19,0)" xlink:href="#am"/><use transform="matrix(0.05,0,0,0.05,28,0)" xlink:href="#Q"/><use transform="matrix(0.05,0,0,0.05,33,0)" xlink:href="#V"/><use transform="matrix(0.05,0,0,0.05,36.95,0)" xlink:href="#R"/><use transform="matrix(0.05,0,0,0.05,46.95,0)" xlink:href="#ad"/><use transform="matrix(0.05,0,0,0.05,56.95,0)" xlink:href="#U"/><use transform="matrix(0.05,0,0,0.05,66.95,0)" xlink:href="#ad"/><use transform="matrix(0.05,0,0,0.05,76.95,0)" xlink:href="#ae"/><use transform="matrix(0.05,0,0,0.05,86.95,0)" xlink:href="#af"/><use transform="matrix(0.05,0,0,0.05,101.9,0)" xlink:href="#T"/><use transform="matrix(0.05,0,0,0.05,111.9,0)" xlink:href="#P"/></g><path fill="#333" d="M190 0L58-211 59 0H30v-248h39L202-35l-2-213h31V0h-41" id="ao"/><path fill="#333" d="M127-220V0H93v-220H8v-28h204v28h-85" id="ap"/><g id="l"><use transform="matrix(0.05,0,0,0.05,0,0)" xlink:href="#aa"/><use transform="matrix(0.05,0,0,0.05,5,0)" xlink:href="#ao"/><use transform="matrix(0.05,0,0,0.05,17.950000000000003,0)" xlink:href="#ap"/></g><g id="m"><use transform="matrix(0.05,0,0,0.05,0,0)" xlink:href="#ak"/><use transform="matrix(0.05,0,0,0.05,10,0)" xlink:href="#ad"/><use transform="matrix(0.05,0,0,0.05,20,0)" xlink:href="#V"/><use transform="matrix(0.05,0,0,0.05,23.95,0)" xlink:href="#Q"/><use transform="matrix(0.05,0,0,0.05,28.950000000000003,0)" xlink:href="#P"/></g><g id="n"><use transform="matrix(0.05,0,0,0.05,0,0)" xlink:href="#ak"/><use transform="matrix(0.05,0,0,0.05,10,0)" xlink:href="#ad"/><use transform="matrix(0.05,0,0,0.05,20,0)" xlink:href="#V"/><use transform="matrix(0.05,0,0,0.05,23.95,0)" xlink:href="#Q"/><use transform="matrix(0.05,0,0,0.05,28.950000000000003,0)" xlink:href="#U"/><use transform="matrix(0.05,0,0,0.05,38.95,0)" xlink:href="#V"/><use transform="matrix(0.05,0,0,0.05,42.900000000000006,0)" xlink:href="#W"/></g><path fill="#333" d="M115-194c55 1 70 41 70 98S169 2 115 4C84 4 66-9 55-30l1 105H24l-1-265h31l2 30c10-21 28-34 59-34zm-8 174c40 0 45-34 45-75s-6-73-45-74c-42 0-51 32-51 76 0 43 10 73 51 73" id="aq"/><g id="o"><use transform="matrix(0.05,0,0,0.05,0,0)" xlink:href="#ap"/><use transform="matrix(0.05,0,0,0.05,9.950000000000001,0)" xlink:href="#an"/><use transform="matrix(0.05,0,0,0.05,18.950000000000003,0)" xlink:href="#aq"/><use transform="matrix(0.05,0,0,0.05,28.950000000000003,0)" xlink:href="#T"/></g><g id="p"><use transform="matrix(0.05,0,0,0.05,0,0)" xlink:href="#ak"/><use transform="matrix(0.05,0,0,0.05,10,0)" xlink:href="#ad"/><use transform="matrix(0.05,0,0,0.05,20,0)" xlink:href="#V"/><use transform="matrix(0.05,0,0,0.05,23.95,0)" xlink:href="#Q"/><use transform="matrix(0.05,0,0,0.05,28.950000000000003,0)" xlink:href="#U"/><use transform="matrix(0.05,0,0,0.05,38.95,0)" xlink:href="#ad"/><use transform="matrix(0.05,0,0,0.05,48.95,0)" xlink:href="#ae"/><use transform="matrix(0.05,0,0,0.05,58.95,0)" xlink:href="#af"/><use transform="matrix(0.05,0,0,0.05,73.9,0)" xlink:href="#T"/></g><path fill="#333" d="M115-194c53 0 69 39 70 98 0 66-23 100-70 100C84 3 66-7 56-30L54 0H23l1-261h32v101c10-23 28-34 59-34zm-8 174c40 0 45-34 45-75 0-40-5-75-45-74-42 0-51 32-51 76 0 43 10 73 51 73" id="ar"/><g id="q"><use transform="matrix(0.05,0,0,0.05,0,0)" xlink:href="#ak"/><use transform="matrix(0.05,0,0,0.05,10,0)" xlink:href="#ad"/><use transform="matrix(0.05,0,0,0.05,20,0)" xlink:href="#V"/><use transform="matrix(0.05,0,0,0.05,23.95,0)" xlink:href="#Q"/><use transform="matrix(0.05,0,0,0.05,28.950000000000003,0)" xlink:href="#U"/><use transform="matrix(0.05,0,0,0.05,38.95,0)" xlink:href="#P"/><use transform="matrix(0.05,0,0,0.05,47.95,0)" xlink:href="#an"/><use transform="matrix(0.05,0,0,0.05,56.95,0)" xlink:href="#af"/><use transform="matrix(0.05,0,0,0.05,71.9,0)" xlink:href="#ar"/><use transform="matrix(0.05,0,0,0.05,81.9,0)" xlink:href="#R"/><use transform="matrix(0.05,0,0,0.05,91.9,0)" xlink:href="#aj"/></g><g id="r"><use transform="matrix(0.05,0,0,0.05,0,0)" xlink:href="#am"/><use transform="matrix(0.05,0,0,0.05,9,0)" xlink:href="#ae"/><use transform="matrix(0.05,0,0,0.05,19,0)" xlink:href="#Q"/><use transform="matrix(0.05,0,0,0.05,24,0)" xlink:href="#T"/><use transform="matrix(0.05,0,0,0.05,34,0)" xlink:href="#al"/><use transform="matrix(0.05,0,0,0.05,44,0)" xlink:href="#R"/><use transform="matrix(0.05,0,0,0.05,54,0)" xlink:href="#S"/><use transform="matrix(0.05,0,0,0.05,59.95,0)" xlink:href="#V"/><use transform="matrix(0.05,0,0,0.05,63.900000000000006,0)" xlink:href="#T"/><use transform="matrix(0.05,0,0,0.05,73.9,0)" xlink:href="#P"/></g><g id="s"><use transform="matrix(0.05,0,0,0.05,0,0)" xlink:href="#am"/><use transform="matrix(0.05,0,0,0.05,9,0)" xlink:href="#ae"/><use transform="matrix(0.05,0,0,0.05,19,0)" xlink:href="#Q"/><use transform="matrix(0.05,0,0,0.05,24,0)" xlink:href="#T"/><use transform="matrix(0.05,0,0,0.05,34,0)" xlink:href="#al"/><use transform="matrix(0.05,0,0,0.05,44,0)" xlink:href="#R"/><use transform="matrix(0.05,0,0,0.05,54,0)" xlink:href="#S"/><use transform="matrix(0.05,0,0,0.05,59.95,0)" xlink:href="#an"/><use transform="matrix(0.05,0,0,0.05,68.95,0)" xlink:href="#U"/><use transform="matrix(0.05,0,0,0.05,78.95,0)" xlink:href="#V"/><use transform="matrix(0.05,0,0,0.05,82.9,0)" xlink:href="#W"/></g><g id="t"><use transform="matrix(0.05,0,0,0.05,0,0)" xlink:href="#am"/><use transform="matrix(0.05,0,0,0.05,9,0)" xlink:href="#ae"/><use transform="matrix(0.05,0,0,0.05,19,0)" xlink:href="#Q"/><use transform="matrix(0.05,0,0,0.05,24,0)" xlink:href="#T"/><use transform="matrix(0.05,0,0,0.05,34,0)" xlink:href="#al"/><use transform="matrix(0.05,0,0,0.05,44,0)" xlink:href="#R"/><use transform="matrix(0.05,0,0,0.05,54,0)" xlink:href="#S"/><use transform="matrix(0.05,0,0,0.05,59.95,0)" xlink:href="#an"/><use transform="matrix(0.05,0,0,0.05,68.95,0)" xlink:href="#U"/><use transform="matrix(0.05,0,0,0.05,78.95,0)" xlink:href="#ad"/><use transform="matrix(0.05,0,0,0.05,88.95,0)" xlink:href="#ae"/><use transform="matrix(0.05,0,0,0.05,98.95,0)" xlink:href="#af"/><use transform="matrix(0.05,0,0,0.05,113.9,0)" xlink:href="#T"/></g><g id="u"><use transform="matrix(0.05,0,0,0.05,0,0)" xlink:href="#aq"/><use transform="matrix(0.05,0,0,0.05,10,0)" xlink:href="#S"/><use transform="matrix(0.05,0,0,0.05,15.949999999999998,0)" xlink:href="#R"/><use transform="matrix(0.05,0,0,0.05,25.950000000000003,0)" xlink:href="#W"/><use transform="matrix(0.05,0,0,0.05,35.95,0)" xlink:href="#ak"/><use transform="matrix(0.05,0,0,0.05,45.95,0)" xlink:href="#am"/><use transform="matrix(0.05,0,0,0.05,54.95,0)" xlink:href="#Q"/><use transform="matrix(0.05,0,0,0.05,59.95,0)" xlink:href="#P"/></g><g id="v"><use transform="matrix(0.05,0,0,0.05,0,0)" xlink:href="#aq"/><use transform="matrix(0.05,0,0,0.05,10,0)" xlink:href="#S"/><use transform="matrix(0.05,0,0,0.05,15.949999999999998,0)" xlink:href="#R"/><use transform="matrix(0.05,0,0,0.05,25.950000000000003,0)" xlink:href="#W"/><use transform="matrix(0.05,0,0,0.05,35.95,0)" xlink:href="#ak"/><use transform="matrix(0.05,0,0,0.05,45.95,0)" xlink:href="#am"/><use transform="matrix(0.05,0,0,0.05,54.95,0)" xlink:href="#Q"/><use transform="matrix(0.05,0,0,0.05,59.95,0)" xlink:href="#U"/><use transform="matrix(0.05,0,0,0.05,69.95,0)" xlink:href="#V"/><use transform="matrix(0.05,0,0,0.05,73.9,0)" xlink:href="#W"/></g><g id="w"><use transform="matrix(0.05,0,0,0.05,0,0)" xlink:href="#ad"/><use transform="matrix(0.05,0,0,0.05,10,0)" xlink:href="#ae"/><use transform="matrix(0.05,0,0,0.05,20,0)" xlink:href="#af"/><use transform="matrix(0.05,0,0,0.05,34.95,0)" xlink:href="#T"/></g><g id="x"><use transform="matrix(0.05,0,0,0.05,0,0)" xlink:href="#W"/><use transform="matrix(0.05,0,0,0.05,10,0)" xlink:href="#T"/><use transform="matrix(0.05,0,0,0.05,20,0)" xlink:href="#P"/><use transform="matrix(0.05,0,0,0.05,29,0)" xlink:href="#am"/><use transform="matrix(0.05,0,0,0.05,38,0)" xlink:href="#S"/><use transform="matrix(0.05,0,0,0.05,43.95,0)" xlink:href="#V"/><use transform="matrix(0.05,0,0,0.05,47.900000000000006,0)" xlink:href="#aq"/><use transform="matrix(0.05,0,0,0.05,57.900000000000006,0)" xlink:href="#Q"/><use transform="matrix(0.05,0,0,0.05,62.900000000000006,0)" xlink:href="#V"/><use transform="matrix(0.05,0,0,0.05,66.85000000000001,0)" xlink:href="#R"/><use transform="matrix(0.05,0,0,0.05,76.85000000000001,0)" xlink:href="#ad"/></g><g id="y"><use transform="matrix(0.05,0,0,0.05,0,0)" xlink:href="#aq"/><use transform="matrix(0.05,0,0,0.05,10,0)" xlink:href="#S"/><use transform="matrix(0.05,0,0,0.05,15.949999999999998,0)" xlink:href="#V"/><use transform="matrix(0.05,0,0,0.05,19.9,0)" xlink:href="#am"/><use transform="matrix(0.05,0,0,0.05,28.899999999999995,0)" xlink:href="#T"/></g><path fill="#333" d="M30-248c118-7 216 8 213 122C240-48 200 0 122 0H30v-248zM63-27c89 8 146-16 146-99s-60-101-146-95v194" id="as"/><path fill="#333" d="M240 0l2-218c-23 76-54 145-80 218h-23L58-218 59 0H30v-248h44l77 211c21-75 51-140 76-211h43V0h-30" id="at"/><g id="z"><use transform="matrix(0.05,0,0,0.05,0,0)" xlink:href="#as"/><use transform="matrix(0.05,0,0,0.05,12.950000000000001,0)" xlink:href="#Y"/><use transform="matrix(0.05,0,0,0.05,24.950000000000003,0)" xlink:href="#ah"/><use transform="matrix(0.05,0,0,0.05,37.900000000000006,0)" xlink:href="#aa"/><use transform="matrix(0.05,0,0,0.05,42.900000000000006,0)" xlink:href="#at"/><use transform="matrix(0.05,0,0,0.05,57.85,0)" xlink:href="#ab"/><use transform="matrix(0.05,0,0,0.05,69.85000000000001,0)" xlink:href="#ac"/></g><path fill="#333" d="M108 0H70L1-190h34L89-25l56-165h34" id="au"/><g id="A"><use transform="matrix(0.05,0,0,0.05,0,0)" xlink:href="#ae"/><use transform="matrix(0.05,0,0,0.05,10,0)" xlink:href="#au"/><use transform="matrix(0.05,0,0,0.05,19,0)" xlink:href="#ae"/><use transform="matrix(0.05,0,0,0.05,29,0)" xlink:href="#V"/><use transform="matrix(0.05,0,0,0.05,32.95,0)" xlink:href="#aj"/><use transform="matrix(0.05,0,0,0.05,36.900000000000006,0)" xlink:href="#ae"/><use transform="matrix(0.05,0,0,0.05,46.900000000000006,0)" xlink:href="#ar"/><use transform="matrix(0.05,0,0,0.05,56.900000000000006,0)" xlink:href="#V"/><use transform="matrix(0.05,0,0,0.05,60.85,0)" xlink:href="#aj"/><use transform="matrix(0.05,0,0,0.05,64.80000000000001,0)" xlink:href="#V"/><use transform="matrix(0.05,0,0,0.05,68.75000000000001,0)" xlink:href="#Q"/><use transform="matrix(0.05,0,0,0.05,73.75000000000001,0)" xlink:href="#an"/></g><g id="B"><use transform="matrix(0.05,0,0,0.05,0,0)" xlink:href="#ae"/><use transform="matrix(0.05,0,0,0.05,10,0)" xlink:href="#af"/><use transform="matrix(0.05,0,0,0.05,24.950000000000003,0)" xlink:href="#R"/><use transform="matrix(0.05,0,0,0.05,34.95,0)" xlink:href="#ak"/><use transform="matrix(0.05,0,0,0.05,44.95,0)" xlink:href="#ad"/><use transform="matrix(0.05,0,0,0.05,54.95,0)" xlink:href="#Q"/></g><g id="C"><use transform="matrix(0.05,0,0,0.05,0,0)" xlink:href="#ak"/><use transform="matrix(0.05,0,0,0.05,10,0)" xlink:href="#P"/><use transform="matrix(0.05,0,0,0.05,19,0)" xlink:href="#T"/><use transform="matrix(0.05,0,0,0.05,29,0)" xlink:href="#S"/><use transform="matrix(0.05,0,0,0.05,34.95,0)" xlink:href="#P"/></g><g id="D"><use transform="matrix(0.05,0,0,0.05,0,0)" xlink:href="#ak"/><use transform="matrix(0.05,0,0,0.05,10,0)" xlink:href="#P"/><use transform="matrix(0.05,0,0,0.05,19,0)" xlink:href="#T"/><use transform="matrix(0.05,0,0,0.05,29,0)" xlink:href="#S"/><use transform="matrix(0.05,0,0,0.05,34.95,0)" xlink:href="#U"/><use transform="matrix(0.05,0,0,0.05,44.95,0)" xlink:href="#V"/><use transform="matrix(0.05,0,0,0.05,48.900000000000006,0)" xlink:href="#W"/></g><g id="E"><use transform="matrix(0.05,0,0,0.05,0,0)" xlink:href="#T"/><use transform="matrix(0.05,0,0,0.05,10,0)" xlink:href="#af"/><use transform="matrix(0.05,0,0,0.05,24.950000000000003,0)" xlink:href="#ae"/><use transform="matrix(0.05,0,0,0.05,34.95,0)" xlink:href="#V"/><use transform="matrix(0.05,0,0,0.05,38.900000000000006,0)" xlink:href="#aj"/></g><path fill="#333" d="M206 0h-36l-40-164L89 0H53L-1-190h32L70-26l43-164h34l41 164 42-164h31" id="av"/><g id="F"><use transform="matrix(0.05,0,0,0.05,0,0)" xlink:href="#aq"/><use transform="matrix(0.05,0,0,0.05,10,0)" xlink:href="#ae"/><use transform="matrix(0.05,0,0,0.05,20,0)" xlink:href="#P"/><use transform="matrix(0.05,0,0,0.05,29,0)" xlink:href="#P"/><use transform="matrix(0.05,0,0,0.05,38,0)" xlink:href="#av"/><use transform="matrix(0.05,0,0,0.05,50.95,0)" xlink:href="#R"/><use transform="matrix(0.05,0,0,0.05,60.95,0)" xlink:href="#S"/><use transform="matrix(0.05,0,0,0.05,66.9,0)" xlink:href="#W"/></g><path fill="#333" d="M101-234c-31-9-42 10-38 44h38v23H63V0H32v-167H5v-23h27c-7-52 17-82 69-68v24" id="aw"/><g id="G"><use transform="matrix(0.05,0,0,0.05,0,0)" xlink:href="#aw"/><use transform="matrix(0.05,0,0,0.05,5,0)" xlink:href="#V"/><use transform="matrix(0.05,0,0,0.05,8.95,0)" xlink:href="#S"/><use transform="matrix(0.05,0,0,0.05,14.899999999999999,0)" xlink:href="#P"/><use transform="matrix(0.05,0,0,0.05,23.9,0)" xlink:href="#Q"/><use transform="matrix(0.05,0,0,0.05,28.899999999999995,0)" xlink:href="#U"/><use transform="matrix(0.05,0,0,0.05,38.9,0)" xlink:href="#ad"/><use transform="matrix(0.05,0,0,0.05,48.9,0)" xlink:href="#ae"/><use transform="matrix(0.05,0,0,0.05,58.900000000000006,0)" xlink:href="#af"/><use transform="matrix(0.05,0,0,0.05,73.85,0)" xlink:href="#T"/></g><g id="H"><use transform="matrix(0.05,0,0,0.05,0,0)" xlink:href="#aj"/><use transform="matrix(0.05,0,0,0.05,3.95,0)" xlink:href="#ae"/><use transform="matrix(0.05,0,0,0.05,13.949999999999998,0)" xlink:href="#P"/><use transform="matrix(0.05,0,0,0.05,22.95,0)" xlink:href="#Q"/><use transform="matrix(0.05,0,0,0.05,27.950000000000003,0)" xlink:href="#U"/><use transform="matrix(0.05,0,0,0.05,37.95,0)" xlink:href="#ad"/><use transform="matrix(0.05,0,0,0.05,47.95,0)" xlink:href="#ae"/><use transform="matrix(0.05,0,0,0.05,57.95,0)" xlink:href="#af"/><use transform="matrix(0.05,0,0,0.05,72.9,0)" xlink:href="#T"/></g><g id="I"><use transform="matrix(0.05,0,0,0.05,0,0)" xlink:href="#am"/><use transform="matrix(0.05,0,0,0.05,9,0)" xlink:href="#ae"/><use transform="matrix(0.05,0,0,0.05,19,0)" xlink:href="#S"/><use transform="matrix(0.05,0,0,0.05,24.95,0)" xlink:href="#Q"/><use transform="matrix(0.05,0,0,0.05,29.950000000000003,0)" xlink:href="#U"/><use transform="matrix(0.05,0,0,0.05,39.95,0)" xlink:href="#V"/><use transform="matrix(0.05,0,0,0.05,43.900000000000006,0)" xlink:href="#Q"/><use transform="matrix(0.05,0,0,0.05,48.900000000000006,0)" xlink:href="#T"/><use transform="matrix(0.05,0,0,0.05,58.900000000000006,0)" xlink:href="#af"/><use transform="matrix(0.05,0,0,0.05,73.85000000000001,0)" xlink:href="#P"/></g><g id="J"><use transform="matrix(0.05,0,0,0.05,0,0)" xlink:href="#am"/><use transform="matrix(0.05,0,0,0.05,9,0)" xlink:href="#ae"/><use transform="matrix(0.05,0,0,0.05,19,0)" xlink:href="#S"/><use transform="matrix(0.05,0,0,0.05,24.95,0)" xlink:href="#Q"/><use transform="matrix(0.05,0,0,0.05,29.950000000000003,0)" xlink:href="#U"/><use transform="matrix(0.05,0,0,0.05,39.95,0)" xlink:href="#V"/><use transform="matrix(0.05,0,0,0.05,43.900000000000006,0)" xlink:href="#Q"/><use transform="matrix(0.05,0,0,0.05,48.900000000000006,0)" xlink:href="#T"/><use transform="matrix(0.05,0,0,0.05,58.900000000000006,0)" xlink:href="#af"/><use transform="matrix(0.05,0,0,0.05,73.85000000000001,0)" xlink:href="#U"/><use transform="matrix(0.05,0,0,0.05,83.85000000000001,0)" xlink:href="#V"/><use transform="matrix(0.05,0,0,0.05,87.80000000000001,0)" xlink:href="#W"/></g><g id="K"><use transform="matrix(0.05,0,0,0.05,0,0)" xlink:href="#am"/><use transform="matrix(0.05,0,0,0.05,9,0)" xlink:href="#ae"/><use transform="matrix(0.05,0,0,0.05,19,0)" xlink:href="#S"/><use transform="matrix(0.05,0,0,0.05,24.95,0)" xlink:href="#Q"/><use transform="matrix(0.05,0,0,0.05,29.950000000000003,0)" xlink:href="#U"/><use transform="matrix(0.05,0,0,0.05,39.95,0)" xlink:href="#V"/><use transform="matrix(0.05,0,0,0.05,43.900000000000006,0)" xlink:href="#W"/></g><path fill="#333" d="M145-31C134-9 116 4 85 4 32 4 16-35 15-94c0-59 17-99 70-100 32-1 48 14 60 33 0-11-1-24 2-32h30l-1 268h-32zM93-21c41 0 51-33 51-76s-8-73-50-73c-40 0-46 35-46 75s5 74 45 74" id="ax"/><g id="L"><use transform="matrix(0.05,0,0,0.05,0,0)" xlink:href="#ax"/><use transform="matrix(0.05,0,0,0.05,10,0)" xlink:href="#ak"/><use transform="matrix(0.05,0,0,0.05,20,0)" xlink:href="#ae"/><use transform="matrix(0.05,0,0,0.05,30,0)" xlink:href="#ad"/><use transform="matrix(0.05,0,0,0.05,40,0)" xlink:href="#Q"/><use transform="matrix(0.05,0,0,0.05,45,0)" xlink:href="#V"/><use transform="matrix(0.05,0,0,0.05,48.95,0)" xlink:href="#Q"/><use transform="matrix(0.05,0,0,0.05,53.95,0)" xlink:href="#an"/></g><g id="M"><use transform="matrix(0.05,0,0,0.05,0,0)" xlink:href="#am"/><use transform="matrix(0.05,0,0,0.05,9,0)" xlink:href="#ae"/><use transform="matrix(0.05,0,0,0.05,19,0)" xlink:href="#S"/><use transform="matrix(0.05,0,0,0.05,24.95,0)" xlink:href="#Q"/><use transform="matrix(0.05,0,0,0.05,29.950000000000003,0)" xlink:href="#P"/></g><g id="N"><use transform="matrix(0.05,0,0,0.05,0,0)" xlink:href="#am"/><use transform="matrix(0.05,0,0,0.05,9,0)" xlink:href="#S"/><use transform="matrix(0.05,0,0,0.05,14.949999999999998,0)" xlink:href="#T"/><use transform="matrix(0.05,0,0,0.05,24.95,0)" xlink:href="#ae"/><use transform="matrix(0.05,0,0,0.05,34.95,0)" xlink:href="#Q"/><use transform="matrix(0.05,0,0,0.05,39.95,0)" xlink:href="#V"/><use transform="matrix(0.05,0,0,0.05,43.900000000000006,0)" xlink:href="#R"/><use transform="matrix(0.05,0,0,0.05,53.900000000000006,0)" xlink:href="#ad"/><use transform="matrix(0.05,0,0,0.05,63.900000000000006,0)" xlink:href="#U"/><use transform="matrix(0.05,0,0,0.05,73.9,0)" xlink:href="#W"/><use transform="matrix(0.05,0,0,0.05,83.9,0)" xlink:href="#ae"/><use transform="matrix(0.05,0,0,0.05,93.9,0)" xlink:href="#Q"/><use transform="matrix(0.05,0,0,0.05,98.9,0)" xlink:href="#T"/></g><path fill="#333" d="M30-248c87 1 191-15 191 75 0 78-77 80-158 76V0H30v-248zm33 125c57 0 124 11 124-50 0-59-68-47-124-48v98" id="ay"/><g id="O"><use transform="matrix(0.05,0,0,0.05,0,0)" xlink:href="#ap"/><use transform="matrix(0.05,0,0,0.05,10.950000000000001,0)" xlink:href="#aa"/><use transform="matrix(0.05,0,0,0.05,15.950000000000001,0)" xlink:href="#at"/><use transform="matrix(0.05,0,0,0.05,30.900000000000002,0)" xlink:href="#Y"/><use transform="matrix(0.05,0,0,0.05,42.900000000000006,0)" xlink:href="#X"/><use transform="matrix(0.05,0,0,0.05,54.900000000000006,0)" xlink:href="#ap"/><use transform="matrix(0.05,0,0,0.05,64.5,0)" xlink:href="#ab"/><use transform="matrix(0.05,0,0,0.05,76.5,0)" xlink:href="#at"/><use transform="matrix(0.05,0,0,0.05,91.45,0)" xlink:href="#ay"/></g></defs></g></svg>